<?xml version="1.0" encoding="utf-8"?>
<!-- Generator: Adobe Illustrator 23.0.3, SVG Export Plug-In . SVG Version: 6.00 Build 0)  -->
<svg version="1.1" id="Layer_1" xmlns="http://www.w3.org/2000/svg" xmlns:xlink="http://www.w3.org/1999/xlink" x="0px" y="0px"
	 viewBox="0 0 162 162" enable-background="new 0 0 162 162" xml:space="preserve">
<g>
	<path fill="#F25835" d="M81,149.355c-37.69,0-68.354-30.664-68.354-68.355c0-37.691,30.664-68.355,68.354-68.355
		c37.691,0,68.355,30.664,68.355,68.355C149.355,118.691,118.691,149.355,81,149.355z"/>
	<path fill="#FFFFFF" d="M81,15.732c35.989,0,65.268,29.279,65.268,65.268S116.989,146.268,81,146.268S15.732,116.989,15.732,81
		S45.011,15.732,81,15.732 M81,9.558C41.544,9.558,9.558,41.544,9.558,81S41.544,152.442,81,152.442S152.442,120.456,152.442,81
		S120.456,9.558,81,9.558L81,9.558z"/>
</g>
<path fill="#FFFFFF" d="M107.164,79.342c-0.869-0.508-1.915-0.775-2.953-0.996c-1.689-0.359-4.558-0.637-6.305-0.764
	c-1.369-3.967-1.58-7.561-0.082-11.618c0.951-2.575,1.814-5.137,2.249-7.809c0.632-3.882,0.507-7.827-0.096-11.706
	c-1.583-10.195-7.665-16.596-11.053-20.738c-0.676-0.827-2.276-0.436-2.268,0.554c0.038,4.623,0.014,11.435-0.55,20.755
	c-0.623,10.276-6.566,23.232-9.284,28.681L48.05,67.996c-0.866-0.268-1.527,1.643-0.765,2.058c3.859,2.1,17.688,6.078,21.484,9.103
	c1.248,0.995,1.248,2.69,0,3.685c-3.796,3.025-17.624,7.003-21.484,9.103c-0.762,0.415-0.102,2.326,0.765,2.058l28.771-7.705
	c2.718,5.449,8.661,18.405,9.284,28.681c0.565,9.32,0.588,16.133,0.55,20.755c-0.008,0.99,1.592,1.38,2.268,0.554
	c3.388-4.142,9.47-10.543,11.053-20.738c0.602-3.879,0.727-7.824,0.096-11.706c-0.435-2.672-1.298-5.234-2.249-7.809
	c-1.492-4.04-1.289-7.622,0.065-11.569c1.572-0.07,4.246-0.546,5.687-1.098c0.7-0.268,1.395-0.557,2.142-0.723
	c1.141-0.254,2.383-0.208,3.49,0.131C109.288,81.454,108.493,80.119,107.164,79.342z"/>
</svg>
